<?xml version="1.0" encoding="UTF-8"?>
<svg width="512px" height="512px" viewBox="0 0 512 512" version="1.1" xmlns="http://www.w3.org/2000/svg" xmlns:xlink="http://www.w3.org/1999/xlink">
    <!-- Generator: Sketch 60.1 (88133) - https://sketch.com -->
    <title>browser</title>
    <desc>Created with Sketch.</desc>
    <g id="Page-1" stroke="none" stroke-width="1" fill="none" fill-rule="evenodd">
        <g id="browser" fill-rule="nonzero">
            <rect id="invisible" fill-opacity="0.01" fill="#FFFFFF" x="0" y="0" width="512" height="512"></rect>
            <g id="google-chrome" transform="translate(29.000000, 29.000000)" fill="#FAFAFA">
                <path d="M227.5,409.5 L306.215,273 L305.9875,273 C313.7225,259.35 318.5,244.1075 318.5,227.5 C318.5,200.2 306.215,175.8575 287.105,159.25 L396.0775,159.25 C404.7225,180.4075 409.5,203.385 409.5,227.5 C409.5,328.055 328.055,409.5 227.5,409.5 M45.5,227.5 C45.5,194.285 54.3725,163.345 69.8425,136.5 L148.785,273 L149.0125,273 C164.71,300.0725 193.375,318.5 227.5,318.5 C237.7375,318.5 247.52,316.4525 256.8475,313.2675 L202.2475,407.4525 C113.75,395.1675 45.5,319.41 45.5,227.5 M295.75,227.5 C295.75,265.265 265.265,295.75 227.5,295.75 C189.735,295.75 159.25,265.265 159.25,227.5 C159.25,189.735 189.735,159.25 227.5,159.25 C265.265,159.25 295.75,189.735 295.75,227.5 M227.5,45.5 C294.84,45.5 353.535,82.1275 384.93,136.5 L227.5,136.5 C183.365,136.5 146.7375,167.895 138.32,209.5275 L84.175,115.57 C117.39,73.0275 169.26,45.5 227.5,45.5 M227.5,0 C101.92,0 0,101.92 0,227.5 C0,353.08 101.92,455 227.5,455 C353.08,455 455,353.08 455,227.5 C455,101.92 353.08,0 227.5,0 Z" id="Shape"></path>
            </g>
        </g>
    </g>
</svg>