<?xml version="1.0" encoding="UTF-8"?>
<svg width="512px" height="512px" viewBox="0 0 512 512" version="1.1" xmlns="http://www.w3.org/2000/svg" xmlns:xlink="http://www.w3.org/1999/xlink">
    <!-- Generator: Sketch 60.1 (88133) - https://sketch.com -->
    <title>icon</title>
    <desc>Created with Sketch.</desc>
    <g id="pushToTalk" stroke="none" stroke-width="1" fill="none" fill-rule="evenodd">
        <g id="icon" fill="#FFFFFF">
            <rect id="invisible" fill-opacity="0.01" x="0" y="0" width="512" height="512"></rect>
            <path d="M191.74772,200.977878 C163.909056,218.306097 148,242.93087 148,242.93087 C148,242.93087 152.122758,191.295746 191.74772,161.08365 C207.506477,149.066621 229.053522,139 258.031668,139 C268.919664,139 291.747753,140.894482 312.312607,153.572133 C332.875713,166.249783 341.184145,176.870418 350.448553,192.417755 C354.445478,199.127088 357.701391,207.746632 359.732185,216.060332 C363.538615,231.637379 364,250.267619 364,250.267619 L364,274.808502 L217.036531,274.808502 C217.036531,274.808502 213.446813,324.18388 281.034525,324.18388 C304.54071,324.18388 312.772244,320.492785 320.503944,318.203328 C332.606572,314.618842 344.293253,306.630209 344.293253,306.630209 L344.315973,355.961895 C344.315973,355.961895 316.653823,373 274.865243,373 C263.098169,373 250.69669,372.012562 238.735624,368.132719 C228.284547,364.742225 206.396705,355.59663 191.74772,334.159621 C186.565873,326.578197 180.950604,316.487109 178.168311,306.630209 C175.162315,295.972874 175.199016,285.619634 175.199016,279.915215 C175.199016,258.581319 182.488555,238.212141 195.134708,223.48796 C211.517384,204.415559 232.223799,196.01797 232.223799,196.01797 C232.223799,196.01797 225.479534,203.882517 221.330561,213.671257 C217.181588,223.461745 216.047349,233.311654 216.047349,233.311654 L299.032049,233.311654 C299.032049,233.311654 303.885333,183.724808 252.075603,183.724808 C232.554109,183.724808 208.579547,190.500553 191.74772,200.977878" id="Fill-17"></path>
        </g>
    </g>
</svg>