<?xml version="1.0" encoding="UTF-8"?>
<svg width="512px" height="512px" viewBox="0 0 512 512" version="1.1" xmlns="http://www.w3.org/2000/svg" xmlns:xlink="http://www.w3.org/1999/xlink">
    <!-- Generator: Sketch 60.1 (88133) - https://sketch.com -->
    <title>browser</title>
    <desc>Created with Sketch.</desc>
    <g id="Page-1" stroke="none" stroke-width="1" fill="none" fill-rule="evenodd">
        <g id="browser" fill="#FFFFFF" fill-rule="nonzero">
            <rect id="invisible" fill-opacity="0.01" x="0" y="0" width="512" height="512"></rect>
            <g id="firefox" transform="translate(26.000000, 27.000000)">
                <path d="M460,220.612227 C460,210.383208 457.444444,195.03968 454.888889,184.810661 C447.222222,141.337331 424.222222,102.978511 396.111111,72.2914545 C391,64.6196904 380.777778,56.9479263 370.555556,49.2761622 C342.444444,26.2608698 309.222222,10.9173416 270.888889,3.24557752 C194.222222,-9.540696 117.555556,16.031851 66.4444444,69.7341998 C66.4444444,69.7341998 66.4444444,67.1769451 66.4444444,67.1769451 C63.8888889,62.0624357 63.8888889,62.0624357 61.3333333,62.0624357 C61.3333333,62.0624357 61.3333333,62.0624357 61.3333333,62.0624357 C58.7777778,56.9479263 58.7777778,54.3906716 56.2222222,51.8334169 C56.2222222,51.8334169 56.2222222,51.8334169 56.2222222,51.8334169 C56.2222222,46.7189075 53.6666667,41.6043981 53.6666667,36.4898887 C46,39.0471434 46,46.7189075 43.4444444,51.8334169 C43.4444444,51.8334169 43.4444444,51.8334169 43.4444444,51.8334169 C38.3333333,56.9479263 33.2222222,64.6196904 33.2222222,72.2914545 C33.2222222,72.2914545 33.2222222,72.2914545 33.2222222,72.2914545 C30.6666667,77.4059639 25.5555556,100.421256 30.6666667,102.978511 C30.6666667,102.978511 30.6666667,102.978511 33.2222222,102.978511 C33.2222222,105.535766 33.2222222,108.09302 33.2222222,110.650275 C28.1111111,115.764784 25.5555556,118.322039 25.5555556,120.879294 C17.8888889,136.222822 10.2222222,149.009096 7.66666667,164.352624 C7.66666667,169.467133 7.66666667,172.024388 7.66666667,174.581643 C7.66666667,174.581643 7.66666667,174.581643 7.66666667,174.581643 C7.66666667,174.581643 7.66666667,172.024388 7.66666667,172.024388 C2.55555556,177.138897 2.55555556,184.810661 -2.84217094e-14,189.925171 C2.55555556,189.925171 2.55555556,187.367916 5.11111111,187.367916 C-7.66666667,253.856538 10.2222222,322.902415 51.1111111,374.047509 C112.444444,448.207896 217.222222,478.894952 309.222222,445.650641 C398.666667,412.40633 460,325.45967 460,228.283991 C460,225.726737 460,223.169482 460,220.612227 M268.333333,26.2608698 C306.666667,33.932634 342.444444,51.8334169 370.555556,77.4059639 C373.111111,79.9632186 375.666667,85.077728 375.666667,85.077728 C368,77.4059639 350.111111,64.6196904 339.888889,69.7341998 C342.444444,77.4059639 373.111111,115.764784 375.666667,118.322039 C375.666667,118.322039 383.333333,151.56635 385.888889,154.123605 C385.888889,154.123605 385.888889,154.123605 385.888889,154.123605 C385.888889,154.123605 385.888889,154.123605 385.888889,154.123605 C385.888889,159.238114 368,225.726737 368,235.955755 C368,238.51301 345,284.543595 347.555556,284.543595 C339.888889,302.444378 332.222222,302.444378 329.666667,305.001632 C327.111111,305.001632 311.777778,310.116142 293.888889,315.230651 C278.555556,317.787906 260.666667,322.902415 247.888889,320.345161 C240.222222,320.345161 230,320.345161 222.333333,315.230651 C219.777778,312.673397 199.333333,302.444378 194.222222,299.887123 C186.555556,297.329868 181.444444,292.215359 176.333333,287.10085 C184,287.10085 199.333333,287.10085 204.444444,287.10085 C219.777778,284.543595 286.222222,261.528303 283.666667,251.299284 C283.666667,243.62752 270.888889,238.51301 265.777778,233.398501 C258.111111,230.841246 227.444444,235.955755 214.666667,241.070265 C214.666667,241.070265 166.111111,228.283991 153.333333,218.054973 C153.333333,215.497718 150.777778,200.15419 150.777778,197.596935 C148.222222,195.03968 158.444444,187.367916 158.444444,187.367916 C158.444444,187.367916 184,161.795369 184,159.238114 C189.111111,159.238114 194.222222,154.123605 196.777778,151.56635 C194.222222,151.56635 199.333333,149.009096 207,143.894586 C207,143.894586 207,143.894586 207,143.894586 C214.666667,138.780077 219.777778,138.780077 219.777778,131.108313 C219.777778,131.108313 232.555556,108.09302 217.222222,110.650275 C217.222222,110.650275 194.222222,108.09302 186.555556,108.09302 C178.888889,113.20753 176.333333,110.650275 168.666667,108.09302 C168.666667,108.09302 163.555556,102.978511 163.555556,100.421256 C166.111111,95.3067468 184,56.9479263 191.666667,54.3906716 C186.555556,44.1616528 161,51.8334169 155.888889,59.505181 C155.888889,59.505181 135.444444,74.8487092 125.222222,77.4059639 C125.222222,77.4059639 125.222222,77.4059639 125.222222,77.4059639 C125.222222,74.8487092 112.444444,72.2914545 99.6666667,72.2914545 C145.666667,33.932634 207,16.031851 268.333333,26.2608698 Z" id="Shape"></path>
            </g>
        </g>
    </g>
</svg>