<?xml version="1.0" encoding="UTF-8"?>
<svg width="512px" height="512px" viewBox="0 0 512 512" version="1.1" xmlns="http://www.w3.org/2000/svg" xmlns:xlink="http://www.w3.org/1999/xlink">
    <!-- Generator: Sketch 60.1 (88133) - https://sketch.com -->
    <title>browser</title>
    <desc>Created with Sketch.</desc>
    <g id="Page-1" stroke="none" stroke-width="1" fill="none" fill-rule="evenodd">
        <g id="browser" fill="#FFFFFF" fill-rule="nonzero">
            <rect id="invisible" fill-opacity="0.01" x="0" y="0" width="512" height="512"></rect>
            <g id="safari-svgrepo-com" transform="translate(35.000000, 12.000000)">
                <path d="M221.998449,29.1408983 C214.033594,29.1408983 206.025307,29.5713836 198.091473,30.4230294 C200.759351,26.0560132 201.725679,21.1839147 200.719021,16.4470229 C198.632804,6.60958033 188.631364,0 175.830204,0 C173.215064,0 170.548737,0.2844 167.89637,0.845429509 C160.472845,2.42750164 153.956709,6.00037377 149.551609,10.9082164 C144.839392,16.1579607 142.954816,22.3976656 144.245324,28.4757442 C145.258187,33.2608132 148.191301,37.3574164 152.504887,40.2666885 C110.388094,54.2038426 72.6562376,81.0633247 45.5524611,116.572918 C15.7528873,155.611869 0,202.295429 0,251.571226 C0,374.217561 99.5878428,474 221.998449,474 C344.409054,474 444,374.217561 444,251.571226 C444,128.921784 344.409054,29.1408983 221.998449,29.1408983 Z M175.830204,15.0529967 C181.611123,15.0529967 185.553998,17.3515082 186.023979,19.5738688 C186.286114,20.8140394 185.578816,22.4194229 184.159567,23.967305 C180.553279,22.2391476 176.408762,21.7278491 172.433314,22.5748327 C168.502847,23.4124918 164.953949,25.5416065 162.34036,28.5689902 C160.461988,27.7313312 159.199399,26.5642033 158.940367,25.3442361 C158.645659,23.953318 159.554599,22.0868459 161.370927,20.3540262 C163.706872,18.1238951 167.224748,16.3817508 171.018718,15.5736197 C172.64116,15.2286098 174.2605,15.0529967 175.830204,15.0529967 Z M270.12262,406.132524 L252.418459,377.363056 C251.560706,375.967476 249.916548,375.258806 248.314272,375.602262 C246.708892,375.944164 245.494386,377.257377 245.275682,378.884518 L240.791477,412.325606 C234.554536,413.046709 228.246245,413.413476 221.998449,413.413476 C180.041418,413.413476 140.528908,397.494847 110.326051,368.50625 C110.647127,368.378812 110.955794,368.206309 111.242746,367.98718 L198.842201,301.280617 C204.702225,304.017383 211.047741,305.716012 217.435137,306.259947 L239.662282,352.999456 C240.434726,354.623488 242.221582,355.503109 243.969663,355.128571 C245.723947,354.755588 246.992741,353.2248 247.039273,351.428262 L248.374762,299.690774 C253.266907,297.0084 257.678211,293.611141 261.537327,289.554944 L287.778697,298.874873 C289.472489,299.474753 291.350862,298.83602 292.326498,297.328544 C293.305238,295.821068 293.12376,293.839594 291.887538,292.537259 L272.717596,272.312223 C274.847245,267.121535 276.153264,261.699285 276.604633,256.137167 L323.232,233.870047 C324.852892,233.097659 325.730809,231.313553 325.358547,229.554315 C324.986284,227.796629 323.458459,226.525377 321.665396,226.478753 L273.987941,225.2448 L338.196932,140.594616 C338.412535,140.308662 338.584706,140.000951 338.711896,139.682361 C356.006567,157.792269 368.92561,179.687961 376.268478,203.353771 L347.554669,221.09225 C346.161789,221.95322 345.454492,223.600564 345.797282,225.207502 C346.136971,226.812885 347.447644,228.031298 349.071638,228.248873 L382.444926,232.741771 C383.169286,239.014112 383.53224,245.334629 383.53224,251.571226 C383.53224,294.796918 366.730815,335.439698 336.21774,366.010367 C317.672888,384.591167 294.87339,398.421088 270.12262,406.132524 Z M98.2042689,277.93495 C97.8630288,276.328012 96.5523562,275.111153 94.9283634,274.892026 L61.5550742,270.394465 C60.8322654,264.122124 60.467759,257.803161 60.467759,251.569673 C60.467759,208.336209 77.2707355,167.693429 107.78226,137.127423 C126.327113,118.548177 149.12661,104.715148 173.874278,96.9990491 L191.57999,125.77318 C192.439294,127.170315 194.088104,127.878984 195.685728,127.533974 C197.289557,127.192072 198.504063,125.877305 198.722766,124.251718 L203.208523,90.8121836 C209.44081,90.0895279 215.74755,89.7243147 221.998449,89.7243147 C263.95703,89.7243147 303.471092,105.642944 333.672399,134.631541 C333.354424,134.758977 333.048859,134.931482 332.760356,135.149056 L245.159351,201.85562 C239.30398,199.120406 232.960014,197.420223 226.567965,196.876288 L204.336167,150.135226 C203.563723,148.512748 201.775316,147.631574 200.030337,148.006111 C198.276053,148.379095 197.005708,149.909882 196.959176,151.70642 L195.625238,203.447017 C190.734644,206.127836 186.321789,209.523541 182.461121,213.579738 L156.218201,204.259809 C154.52596,203.659927 152.646037,204.300217 151.6704,205.806138 C150.693212,207.313612 150.87469,209.295088 152.11091,210.597423 L171.280852,230.824012 C169.154306,236.016256 167.851389,241.438506 167.396919,247.000623 L120.766449,269.264636 C119.147109,270.038577 118.269191,271.822682 118.641453,273.580367 C119.013715,275.338053 120.541541,276.609306 122.334603,276.655927 L170.016713,277.889882 L105.807721,362.540065 C105.589017,362.827574 105.416845,363.136839 105.289656,363.456983 C87.9965346,345.3564 75.0790428,323.459153 67.7315214,299.780912 L96.4437799,282.045541 C97.8397624,281.187679 98.5439581,279.540335 98.2042689,277.93495 Z M242.748955,285.534491 C238.899145,287.898276 234.697238,289.576702 230.261114,290.521594 C225.96459,291.438512 221.562591,291.642098 217.123367,291.10438 C216.949645,291.068636 216.77282,291.043771 216.597547,291.032891 C215.440434,290.874374 214.28642,290.663017 213.140165,290.397265 L239.770858,270.113174 C240.053156,269.900262 240.301331,269.651606 240.51383,269.370315 L260.747821,242.692662 C260.792804,242.890033 260.839336,243.088958 260.881215,243.287882 C264.36962,259.769094 257.087245,276.746065 242.748955,285.534491 Z M213.732682,212.616197 C216.48742,212.030302 219.284039,211.735023 222.04343,211.735023 C223.664322,211.735023 225.313132,211.839147 226.946431,212.044288 C227.092234,212.072262 227.239587,212.090912 227.38539,212.101791 C228.551811,212.261862 229.712028,212.474774 230.862937,212.740524 L204.227591,233.021509 C203.948395,233.23442 203.698669,233.483076 203.48617,233.764367 L183.249076,260.445127 C183.204094,260.246203 183.159113,260.047279 183.117233,259.848353 C178.56633,238.369161 192.301248,217.182138 213.732682,212.616197 Z" id="XMLID_26_"></path>
            </g>
        </g>
    </g>
</svg>