<?xml version="1.0" encoding="UTF-8"?>
<svg width="512px" height="512px" viewBox="0 0 512 512" version="1.1" xmlns="http://www.w3.org/2000/svg" xmlns:xlink="http://www.w3.org/1999/xlink">
    <!-- Generator: Sketch 60.1 (88133) - https://sketch.com -->
    <title>avatar</title>
    <desc>Created with Sketch.</desc>
    <g id="avatars" stroke="none" stroke-width="1" fill="none" fill-rule="evenodd">
        <g id="avatar">
            <rect id="invisible" stroke="#FFFFFF" fill-opacity="0" fill="#000000" x="0.5" y="0.5" width="511" height="511"></rect>
            <g id="react-seeklogo.com" transform="translate(97.000000, 113.000000)" fill-rule="nonzero">
                <path d="M0,142.486335 C0,166.509157 23.524094,188.935438 60.6117696,201.576108 C53.205707,238.755816 59.2844729,268.722408 79.5882144,280.399146 C100.458359,292.400468 131.549729,284.093044 161.059659,258.370546 C189.825063,283.054649 218.897634,292.769078 239.182456,281.059156 C260.032194,269.022993 266.374234,237.023929 258.763351,198.683729 C297.392129,185.948096 319,166.825374 319,142.486335 C319,119.020459 295.432259,98.7193162 258.844812,86.1594192 C267.038222,46.2346818 260.095707,16.9952536 238.951514,4.83629885 C218.566296,-6.8856864 189.156237,3.33121881 159.967781,28.6617846 C129.602152,1.77539077 100.482282,-6.43336269 79.3585871,5.76103043 C58.9931819,17.516359 53.181733,48.0275278 60.6117695,85.8955508 C24.7764063,98.3546674 0,119.114303 0,142.486335 Z" id="Path" fill="#FFFFFF"></path>
                <path d="M250.6828,98.6779118 C247.747025,97.6665727 244.704962,96.7096825 241.57273,95.8047207 C242.08755,93.7018814 242.560053,91.6262667 242.98017,89.585943 C249.876319,56.0831924 245.367376,29.0931432 229.970679,20.2068705 C215.207178,11.6861117 191.062599,20.5703678 166.677738,41.8094972 C164.332845,43.8518376 161.981404,46.0141673 159.630972,48.2803533 C158.064856,46.7809901 156.501259,45.3320427 154.941693,43.9461149 C129.385644,21.235855 103.76965,11.6654412 88.3880658,20.577426 C73.6386699,29.1228885 69.2707735,54.496106 75.4783147,86.2469107 C76.0777607,89.3136982 76.7784577,92.445522 77.5708347,95.6297781 C73.9454454,96.659771 70.4454863,97.7578251 67.0966481,98.9259571 C37.134923,109.380662 18,125.765767 18,142.761406 C18,160.314645 38.5413545,177.920818 69.7488191,188.596343 C72.2115854,189.43879 74.7670391,190.235358 77.400572,190.991593 C76.5457316,194.435492 75.802217,197.810318 75.1780878,201.10196 C69.2591876,232.301722 73.8814708,257.075496 88.5915752,265.567014 C103.78577,274.336322 129.285904,265.322497 154.116571,243.599377 C156.079128,241.882218 158.048737,240.061203 160.02187,238.152465 C162.57934,240.617288 165.132777,242.950023 167.672616,245.138065 C191.724005,265.852367 215.478693,274.216838 230.175196,265.701625 C245.354278,256.907107 250.287368,230.294167 243.882864,197.915184 C243.393736,195.442293 242.824515,192.915962 242.185274,190.344761 C243.976056,189.81489 245.734096,189.267881 247.44831,188.699192 C279.89144,177.940985 301,160.549077 301,142.761406 C301,125.70426 281.248,109.208745 250.6828,98.6779118 L250.6828,98.6779118 L250.6828,98.6779118 Z" id="Path" fill="#53C1DE"></path>
                <path d="M243.704502,177.23796 C242.155955,177.751019 240.567081,178.246928 238.947962,178.727701 C235.363924,167.372269 230.526731,155.297442 224.60727,142.822056 C230.256038,130.64381 234.906215,118.723356 238.389941,107.441579 C241.286913,108.280536 244.098695,109.165401 246.808149,110.099201 C273.01448,119.127953 289,132.477105 289,142.763031 C289,153.719416 271.736123,167.942336 243.704502,177.23796 L243.704502,177.23796 L243.704502,177.23796 Z M232.073262,200.303979 C234.907222,214.630823 235.312002,227.583956 233.434792,237.709961 C231.748127,246.808836 228.356143,252.875256 224.162163,255.304852 C215.237351,260.474805 196.151715,253.754572 175.568442,236.028011 C173.208823,233.995949 170.832066,231.826163 168.447747,229.529751 C176.427401,220.795618 184.402518,210.641869 192.186083,199.365135 C205.876506,198.149329 218.810806,196.161661 230.540341,193.448042 C231.118022,195.780271 231.63118,198.067602 232.073262,200.303979 L232.073262,200.303979 L232.073262,200.303979 Z M114.450243,254.411411 C105.730593,257.493304 98.7858245,257.581589 94.5878108,255.159055 C85.6549339,250.002724 81.9413453,230.09881 87.0068878,203.399494 C87.5870888,200.341816 88.2776843,197.200899 89.0736333,193.990363 C100.674628,196.557681 113.514158,198.405101 127.237347,199.518498 C135.073337,210.553079 143.278821,220.695731 151.547819,229.576668 C149.741181,231.322183 147.941599,232.983954 146.152101,234.549872 C135.164577,244.161808 124.153865,250.981423 114.450243,254.411411 L114.450243,254.411411 L114.450243,254.411411 Z M73.5997591,177.170863 C59.7908751,172.447379 48.3869772,166.308312 40.5701426,159.609269 C33.5462328,153.58926 30,147.612637 30,142.763031 C30,132.442801 45.3740656,119.279298 71.0153191,110.332273 C74.1265271,109.246623 77.3834154,108.223529 80.7633004,107.262487 C84.3070125,118.799029 88.9556775,130.860738 94.5656312,143.05765 C88.8830895,155.43567 84.1683895,167.68959 80.5898953,179.361332 C78.1803727,178.668171 75.8459585,177.938688 73.5997591,177.170863 L73.5997591,177.170863 L73.5997591,177.170863 Z M87.2932077,83.8867132 C81.9710861,56.6657617 85.505725,36.131242 94.4002915,30.9784417 C103.874555,25.4891505 124.8248,33.3157163 146.905708,52.9376243 C148.317143,54.1917718 149.734124,55.5044393 151.155138,56.8625105 C142.92697,65.7046027 134.796596,75.7710779 127.03017,86.7405795 C113.711255,87.9760611 100.961956,89.9607015 89.2399811,92.6183235 C88.5030099,89.6514527 87.8502207,86.7365438 87.2932077,83.8867132 L87.2932077,83.8867132 L87.2932077,83.8867132 Z M209.450968,114.074536 C206.648765,109.230479 203.771955,104.500941 200.839194,99.9005512 C209.874904,101.043712 218.532045,102.5612 226.661917,104.418206 C224.22114,112.24679 221.178993,120.432044 217.597978,128.823127 C215.029165,123.942244 212.312151,119.021002 209.450968,114.074536 L209.450968,114.074536 L209.450968,114.074536 Z M159.635346,65.5154212 C165.215559,71.5656988 170.803837,78.3207404 176.300372,85.6498849 C170.761494,85.3880578 165.15406,85.2518471 159.500252,85.2518471 C153.899876,85.2518471 148.333778,85.3850309 142.829178,85.6423177 C148.331258,78.3812784 153.967927,71.6353174 159.635346,65.5154212 L159.635346,65.5154212 L159.635346,65.5154212 Z M109.500639,114.15828 C106.701459,119.015957 104.034854,123.910462 101.506367,128.814047 C97.9833223,120.452223 94.9694027,112.229637 92.5074552,104.290067 C100.587422,102.480483 109.203734,101.000831 118.181978,99.8793628 C115.207881,104.52213 112.30738,109.286477 109.500639,114.157271 L109.500639,114.15828 L109.500639,114.15828 Z M118.440573,186.510376 C109.164415,185.47467 100.418553,184.071197 92.3406032,182.311555 C94.8418693,174.230225 97.9223282,165.832079 101.519977,157.290154 C104.055017,162.190208 106.732209,167.086731 109.548527,171.955003 L109.549031,171.955003 C112.417775,176.914585 115.389856,181.772766 118.440573,186.510376 L118.440573,186.510376 L118.440573,186.510376 Z M159.970059,220.864228 C154.2361,214.672695 148.51676,207.82382 142.931002,200.456839 C148.353436,200.669731 153.881728,200.7787 159.500252,200.7787 C165.272521,200.7787 170.978754,200.648543 176.595262,200.398319 C171.080579,207.89798 165.512465,214.757449 159.970059,220.864228 L159.970059,220.864228 L159.970059,220.864228 Z M217.713413,156.854785 C221.498582,165.48903 224.689435,173.843286 227.222963,181.786892 C219.011935,183.661555 210.146605,185.171476 200.805924,186.293449 C203.745744,181.631006 206.647756,176.820246 209.49936,171.871762 C212.384235,166.865263 215.123429,161.851196 217.713413,156.854785 L217.713413,156.854785 L217.713413,156.854785 Z M199.019952,165.822998 C194.593085,173.504777 190.048261,180.837957 185.434378,187.759984 C177.030789,188.361328 168.348947,188.671082 159.500252,188.671082 C150.687348,188.671082 142.11489,188.397147 133.860007,187.86088 C129.060117,180.848048 124.416493,173.493175 120.017853,165.889085 L120.018861,165.889085 C115.631816,158.305681 111.594101,150.658207 107.935458,143.053615 C111.593093,135.431365 115.620222,127.775314 119.982063,120.205531 L119.981055,120.207044 C124.35449,112.617081 128.957283,105.298026 133.712813,98.3290832 C142.135053,97.6919199 150.771529,97.3594649 159.499748,97.3594649 L159.500252,97.3594649 C168.267789,97.3594649 176.915355,97.6944422 185.335073,98.3371551 C190.018016,105.255145 194.589557,112.550489 198.980131,120.141461 C203.420609,127.817691 207.499658,135.422788 211.188547,142.881586 C207.510749,150.468521 203.440773,158.150301 199.019952,165.822998 L199.019952,165.822998 L199.019952,165.822998 Z M223.97666,30.61824 C233.459997,36.0913877 237.147877,58.1645839 231.189602,87.1093575 C230.809521,88.9562737 230.381556,90.8374947 229.916789,92.74394 C218.167592,90.0308248 205.40922,88.0118795 192.051493,86.757732 C184.269944,75.6676587 176.206108,65.5855445 168.112027,56.856961 C170.288159,54.7618388 172.461266,52.7640818 174.625299,50.8788249 C195.532698,32.6694723 215.073524,25.4800697 223.97666,30.61824 L223.97666,30.61824 L223.97666,30.61824 Z" id="Shape" fill="#FFFFFF"></path>
                <path d="M159.5,117 C173.583023,117 185,128.416469 185,142.5 C185,156.583021 173.583023,168 159.5,168 C145.416978,168 134,156.583021 134,142.5 C134,128.416469 145.416978,117 159.5,117" id="Path" fill="#53C1DE"></path>
            </g>
        </g>
    </g>
</svg>