<?xml version="1.0" encoding="UTF-8"?>
<svg width="512px" height="512px" viewBox="0 0 512 512" version="1.1" xmlns="http://www.w3.org/2000/svg" xmlns:xlink="http://www.w3.org/1999/xlink">
    <!-- Generator: Sketch 60.1 (88133) - https://sketch.com -->
    <title>icon</title>
    <desc>Created with Sketch.</desc>
    <g id="pushToTalk" stroke="none" stroke-width="1" fill="none" fill-rule="evenodd">
        <g id="icon" fill="#FFFFFF">
            <rect id="invisible" fill-opacity="0.01" x="0" y="0" width="512" height="512"></rect>
            <g id="Apple_logo_black" transform="translate(152.000000, 118.000000)" fill-rule="nonzero">
                <path d="M204.619683,194.046603 C200.867305,202.745969 196.425709,210.753685 191.279585,218.115874 C184.264924,228.152408 178.521485,235.09961 174.095205,238.957462 C167.23371,245.28986 159.882103,248.532908 152.009757,248.717351 C146.358213,248.717351 139.54266,247.103504 131.609054,243.82973 C123.649412,240.571288 116.334563,238.957462 109.646132,238.957462 C102.631476,238.957462 95.1083307,240.571288 87.061388,243.82973 C79.0021832,247.103504 72.5098008,248.809573 67.5459332,248.978642 C59.996753,249.301407 52.4720844,245.966138 44.9611888,238.957462 C40.1673343,234.761471 34.1711825,227.568351 26.988047,217.378101 C19.281117,206.496225 12.944952,193.877534 7.98108646,179.491304 C2.66495716,163.952329 0,148.905193 0,134.337603 C0,117.650499 3.59309745,103.25812 10.7900124,91.1973546 C16.4461537,81.5097095 23.9708277,73.8677907 33.3885363,68.2577724 C42.8062532,62.6477625 52.9821007,59.7889609 63.9405902,59.606055 C69.9367378,59.606055 77.7998985,61.4673507 87.5714043,65.125389 C97.315345,68.7957222 103.571869,70.6570179 106.314932,70.6570179 C108.365723,70.6570179 115.316054,68.4806354 127.098534,64.1417174 C138.240816,60.1178757 147.644741,58.4517723 155.34861,59.1080665 C176.224109,60.7987574 191.907534,69.0570091 202.337625,83.9350756 C183.667613,95.2872889 174.432157,111.187453 174.615945,131.584851 C174.78442,147.472719 180.527859,160.693908 191.815636,171.19156 C196.931125,176.063812 202.64394,179.829439 209,182.503806 C207.621593,186.515349 206.166588,190.357826 204.619683,194.046603 Z M156.742358,4.98141774 C156.742358,17.4342607 152.208861,29.0614448 143.172519,39.8234458 C132.267629,52.6173599 119.077631,60.0102803 104.77416,58.8437069 C104.591904,57.3497499 104.486223,55.7774119 104.486223,54.1251491 C104.486223,42.170433 109.67217,29.3765252 118.881591,18.9157677 C123.479399,13.6193029 129.32699,9.21536416 136.418228,5.70225873 C143.494147,2.24157093 150.187173,0.327736044 156.48198,0 C156.665782,1.66475056 156.742358,3.3296059 156.742358,4.98125624 L156.742358,4.98141774 Z" id="path4"></path>
            </g>
        </g>
    </g>
</svg>