<?xml version="1.0" encoding="UTF-8"?>
<svg width="20px" height="20px" viewBox="0 0 20 20" version="1.1" xmlns="http://www.w3.org/2000/svg" xmlns:xlink="http://www.w3.org/1999/xlink">
    <!-- Generator: Sketch 60.1 (88133) - https://sketch.com -->
    <title>Icon</title>
    <desc>Created with Sketch.</desc>
    <g id="Page-1" stroke="none" stroke-width="1" fill="none" fill-rule="evenodd">
        <g id="Icon" fill-rule="nonzero">
            <path d="M5.70865063,0 L14.2913494,0 C16.2763716,0 16.9961886,0.206682025 17.721883,0.59478766 C18.4475775,0.982893297 19.0171067,1.55242254 19.4052123,2.27811699 C19.793318,3.00381143 20,3.72362845 20,5.70865063 L20,14.2913494 C20,16.2763716 19.793318,16.9961886 19.4052123,17.721883 C19.0171067,18.4475775 18.4475775,19.0171067 17.721883,19.4052123 C16.9961886,19.793318 16.2763716,20 14.2913494,20 L5.70865063,20 C3.72362845,20 3.00381143,19.793318 2.27811699,19.4052123 C1.55242254,19.0171067 0.982893297,18.4475775 0.59478766,17.721883 C0.206682025,16.9961886 0,16.2763716 0,14.2913494 L0,5.70865063 C0,3.72362845 0.206682025,3.00381143 0.59478766,2.27811699 C0.982893297,1.55242254 1.55242254,0.982893297 2.27811699,0.59478766 C3.00381143,0.206682025 3.72362845,0 5.70865063,0 Z" id="Path" fill="#000000"></path>
            <path d="M7.37413195,8.1640625 L7.37413195,5.11453277 C7.37413195,3.98930523 8.28802082,3.07607706 9.4140625,3.07607706 C10.5401042,3.07607706 11.453993,3.98930523 11.453993,5.11453277 L11.453993,8.1640625 C12.4413195,7.50360285 13.0859375,6.38652914 13.0859375,5.11453277 C13.0859375,3.08423089 11.4458333,1.4453125 9.4140625,1.4453125 C7.38229168,1.4453125 5.7421875,3.08423089 5.7421875,5.11453277 C5.7421875,6.38652914 6.38680555,7.50360285 7.37413195,8.1640625 Z M15.3910677,11.9384766 L11.6904948,10.0992839 C11.5519271,10.0423177 11.4052083,10.0097656 11.2503386,10.0097656 L10.6308594,10.0097656 L10.6308594,5.12695312 C10.6308594,4.45149738 10.0847396,3.90625 9.40820312,3.90625 C8.73166668,3.90625 8.18554688,4.45149738 8.18554688,5.12695312 L8.18554688,13.8671875 C5.25117188,13.2486979 5.30007812,13.2568359 5.19411457,13.2568359 C4.9414323,13.2568359 4.71320312,13.3626302 4.5501823,13.5253906 L3.90625,14.1764323 L7.93286457,18.1966146 C8.1529427,18.4163411 8.4626823,18.5546875 8.796875,18.5546875 L14.3314323,18.5546875 C14.9427604,18.5546875 15.4155208,18.1070964 15.5051823,17.5130208 L16.1165104,13.2242839 C16.1246614,13.1673177 16.1328125,13.1103516 16.1328125,13.0615234 C16.1328125,12.5569661 15.8230729,12.117513 15.3910677,11.9384766 Z" id="Shape" fill="#FFFFFF"></path>
        </g>
    </g>
</svg>