<svg width="512px" height="512px" viewBox="0 0 512 512" version="1.1" xmlns="http://www.w3.org/2000/svg" xmlns:xlink="http://www.w3.org/1999/xlink">
    <g stroke="none" stroke-width="1" fill="none" fill-rule="evenodd">
        <g id="Bitcoin" fill-rule="nonzero">
            <path d="M504.3374,317.929539 C470.141758,455.072147 331.222962,538.5353 194.048352,504.335647 C56.9297479,470.143994 -26.5431425,331.233404 7.66850124,194.098796 C41.8481416,56.9401875 180.766937,-26.5309654 317.901543,7.66068765 C455.068152,41.8523407 538.533042,180.778931 504.3374,317.929539 Z" id="Path" fill="#F7931A"></path>
            <path d="M369.359688,219.254029 C374.457517,185.209363 348.512207,166.907756 313.035476,154.69869 L324.543606,108.58088 L296.445523,101.584853 L285.241502,146.487353 C277.854852,144.648397 270.268129,142.913383 262.729424,141.194359 L274.013473,95.9960269 L245.931396,89 L234.415263,135.101819 C228.301069,133.710609 222.298915,132.33539 216.472825,130.888212 L216.504836,130.744293 L177.754931,121.077783 L170.280249,151.060756 C170.280249,151.060756 191.12773,155.834045 190.687572,156.129877 C202.067656,158.968265 204.124394,166.491992 203.78027,172.456605 L190.671566,224.994768 C191.455847,225.194655 192.472212,225.482491 193.592614,225.930237 C192.656278,225.698369 191.655919,225.442514 190.623549,225.194655 L172.248955,298.792858 C170.856455,302.246897 167.327189,307.427954 159.372334,305.461071 C159.652435,305.86884 138.949006,300.367964 138.949006,300.367964 L125,332.501715 L161.565121,341.608543 C168.367562,343.311576 175.033955,345.094564 181.596309,346.77361 L169.968137,393.41912 L198.034208,400.415147 L209.550341,354.265355 C217.217092,356.344175 224.659763,358.263085 231.942376,360.070059 L220.466258,406.003973 L248.564341,413 L260.192513,366.44244 C308.105707,375.501296 344.134636,371.847371 359.300078,328.551958 C371.520463,293.691755 358.69186,273.583175 333.482813,260.470622 C351.841401,256.241024 365.670364,244.175875 369.359688,219.254029 L369.359688,219.254029 Z M305.16065,309.194951 C296.477534,344.055154 237.728452,325.209856 218.681617,320.48454 L234.111154,258.687634 C253.157989,263.436937 314.235907,272.839597 305.16065,309.194951 Z M313.851769,218.750315 C305.928926,250.460306 257.031379,234.349456 241.169687,230.399699 L255.158707,174.351529 C271.020399,178.301286 322.10273,185.673099 313.851769,218.750315 L313.851769,218.750315 Z" id="Shape" fill="#FFFFFF"></path>
        </g>
    </g>
</svg>