<?xml version="1.0" encoding="UTF-8"?>
<svg width="512px" height="512px" viewBox="0 0 512 512" version="1.1" xmlns="http://www.w3.org/2000/svg" xmlns:xlink="http://www.w3.org/1999/xlink">
    <!-- Generator: Sketch 60.1 (88133) - https://sketch.com -->
    <title>icon</title>
    <desc>Created with Sketch.</desc>
    <g id="pushToTalk" stroke="none" stroke-width="1" fill="none" fill-rule="evenodd">
        <g id="icon" fill="#FFFFFF">
            <rect id="invisible" fill-opacity="0.01" x="0" y="0" width="512" height="512"></rect>
            <g id="iphone" transform="translate(154.000000, 95.000000)" fill-rule="nonzero">
                <path d="M155.076923,0 L36.9230769,0 C16.5415385,0 0,16.4945455 0,36.8181818 L0,287.181818 C0,307.505455 16.5415385,324 36.9230769,324 L155.076923,324 C175.458462,324 192,307.505455 192,287.181818 L192,36.8181818 C192,16.4945455 175.458462,0 155.076923,0 Z M96,309.272727 C83.7415385,309.272727 73.8461538,299.405455 73.8461538,287.181818 C73.8461538,274.958182 83.7415385,265.090909 96,265.090909 C108.258462,265.090909 118.153846,274.958182 118.153846,287.181818 C118.153846,299.405455 108.258462,309.272727 96,309.272727 Z M162.461538,250.363636 L29.5384615,250.363636 L29.5384615,44.1818182 L162.461538,44.1818182 L162.461538,250.363636 Z" id="Shape"></path>
                <g id="Apple_logo_black" transform="translate(54.000000, 93.000000)">
                    <path d="M82.2394899,77.9303628 C80.7313569,81.4240839 78.946218,84.6400341 76.8779193,87.5967367 C74.0586299,91.627473 71.7502618,94.4175142 69.9712784,95.966852 C67.2135484,98.5099841 64.2588358,99.8124127 61.0948306,99.8864863 C58.8233965,99.8864863 56.0841313,99.2383549 52.8955049,97.9235863 C49.6964145,96.614975 46.7564751,95.966852 44.068302,95.966852 C41.2490142,95.966852 38.2253578,96.614975 34.9911799,97.9235863 C31.7520736,99.2383549 29.1426951,99.9235231 27.1476478,99.9914225 C24.1135275,100.121047 21.0892588,98.7815817 18.0705257,95.966852 C16.143809,94.2817154 13.7338724,91.3929122 10.8468705,87.3004423 C7.74934846,82.9302108 5.20275583,77.8624634 3.20770939,72.0848611 C1.07108326,65.8443089 -2.84217094e-14,59.8012824 -2.84217094e-14,53.9508448 C-2.84217094e-14,47.2491966 1.44411572,41.4691246 4.3366557,36.6254436 C6.60993735,32.7348231 9.63420827,29.6657794 13.419316,27.41276 C17.2044271,25.159744 21.2942414,24.0116309 25.6986104,23.9381747 C28.1085453,23.9381747 31.2688587,24.685683 35.1961625,26.1547747 C39.1123875,27.6288041 41.6269712,28.3763124 42.7294465,28.3763124 C43.5536879,28.3763124 46.3471222,27.5022632 51.0826644,25.7597259 C55.5609022,24.1437252 59.3404701,23.4746073 62.4367621,23.7381793 C70.8269148,24.4171717 77.1303006,27.7337386 81.3222992,33.7088657 C73.8185621,38.2679875 70.106704,44.6535956 70.1805711,52.8453219 C70.2482835,59.2259915 72.5566515,64.5357061 77.0933658,68.7516306 C79.1493517,70.7083581 81.4454112,72.2206583 84,73.2947011 C83.4459992,74.9057625 82.8612123,76.4489261 82.2394899,77.9303628 Z M62.9969285,2.00056937 C62.9969285,7.00171112 61.1748532,11.671263 57.5430219,15.9933517 C53.1601955,21.1314698 47.858952,24.1005142 42.1101886,23.6320108 C42.0369373,23.0320281 41.9944627,22.400567 41.9944627,21.7370077 C41.9944627,16.9359169 44.0787667,11.7978013 47.7801609,7.59669384 C49.6280839,5.46959957 51.9783116,3.70094946 54.8283787,2.29006375 C57.6722886,0.900229289 60.3623088,0.131620901 62.8922789,0 C62.9661518,0.668574523 62.9969285,1.33719112 62.9969285,2.00050451 L62.9969285,2.00056937 Z" id="path4"></path>
                </g>
            </g>
        </g>
    </g>
</svg>