<?xml version="1.0" encoding="UTF-8"?>
<svg width="512px" height="512px" viewBox="0 0 512 512" version="1.1" xmlns="http://www.w3.org/2000/svg" xmlns:xlink="http://www.w3.org/1999/xlink">
    <!-- Generator: Sketch 60.1 (88133) - https://sketch.com -->
    <title>icon</title>
    <desc>Created with Sketch.</desc>
    <g id="pushToTalk" stroke="none" stroke-width="1" fill="none" fill-rule="evenodd">
        <g id="icon" fill="#FFFFFF">
            <rect id="invisible" fill-opacity="0.01" x="0" y="0" width="512" height="512"></rect>
            <g id="xbox" transform="translate(140.000000, 140.000000)" fill-rule="nonzero">
                <path d="M105.351683,233.514056 C87.3382513,231.799119 69.0905412,225.329131 53.3938662,215.09148 C40.2482263,206.516798 37.2806957,203.008973 37.2806957,195.96734 C37.2806957,181.858089 52.8211848,157.121429 79.3727744,128.954896 C94.4707371,112.948822 115.47773,94.1884564 117.742424,94.6821503 C122.167689,95.6695379 157.491716,130.124171 170.715449,146.312133 C191.644349,171.984212 201.275808,192.979193 196.381985,202.333392 C192.659557,209.452977 169.622148,223.354356 152.702017,228.681053 C138.749417,233.098313 120.423614,234.969153 105.351683,233.514056 Z M19.553605,181.312428 C8.64662848,164.578805 3.1280628,148.079037 0.446872873,124.251813 C-0.438180112,116.378695 -0.12580847,111.883483 2.45125758,95.7215057 C5.65306691,75.5839937 17.1066938,52.3024315 30.903108,37.9593261 C36.7861072,31.8531128 37.3067266,31.6972095 44.4652434,34.1137109 C53.1595875,37.0498901 62.4266128,43.4419262 76.8217393,56.4598533 L85.2297427,64.0471481 L80.648292,69.6856515 C59.3289274,95.8254413 36.8642001,132.878463 28.4041348,155.796251 C23.7966531,168.242533 21.9484542,180.766766 23.926808,185.963543 C25.2543874,189.471368 24.0309318,188.172174 19.553605,181.312428 Z M211.141545,184.144671 C212.208815,178.895926 210.855205,169.229921 207.653395,159.485963 C200.755188,138.387047 177.613656,99.099411 156.372384,72.4139596 L149.682425,64.0211642 L156.919035,57.3692893 C166.368277,48.6906712 172.928081,43.4938939 180.008505,39.1026171 C185.605164,35.6207763 193.570641,32.5546777 197.006729,32.5546777 C199.115237,32.5546777 206.560095,40.271892 212.573249,48.7166551 C221.892336,61.7605661 228.738481,77.6107369 232.2006,94.0845209 C234.439264,104.737914 234.62148,127.525783 232.565034,138.127208 C230.873021,146.83181 227.280747,158.134801 223.792597,165.826031 C221.163469,171.56847 214.655726,182.715558 211.79232,186.353302 C210.334585,188.172174 210.334585,188.172174 211.141545,184.144671 L211.141545,184.144671 Z M107.277974,28.5531592 C97.4642987,23.564253 82.340305,18.2375563 73.9843636,16.7824587 C71.042864,16.2887648 66.0709487,16.0029421 62.8691393,16.1588454 C55.9709322,16.4966359 56.2833039,16.1588454 67.3464662,10.9360842 C76.5353987,6.59677517 84.2145349,4.0503543 94.6269229,1.86770784 C106.34086,-0.600761376 128.337029,-0.626745263 139.868749,1.81574006 C152.311553,4.4401126 166.966989,9.89672875 175.218807,14.9635866 L177.665718,16.470652 L172.043028,16.1848293 C160.849711,15.6131838 144.554324,20.13438 127.035481,28.6570948 C121.751194,31.2294995 117.169743,33.2822266 116.83134,33.2042749 C116.518969,33.1523071 112.197828,31.0476123 107.277974,28.5531592 Z" id="path4148"></path>
            </g>
        </g>
    </g>
</svg>